<svg width="194" height="181" viewBox="0 0 194 181" fill="none" xmlns="http://www.w3.org/2000/svg">
<g clip-path="url(#clip0_390_938)">
<path d="M97.7383 13.3823C142.442 13.3823 178.681 50.1167 178.681 95.4309C178.681 123.476 164.8 148.234 143.623 163.032" stroke="url(#paint0_linear_390_938)" stroke-width="2" stroke-miterlimit="10"/>
<path d="M147.621 163.317C147.621 160.422 145.343 158.147 142.444 158.147C139.545 158.147 137.268 160.422 137.268 163.317C137.268 166.213 139.545 168.488 142.444 168.488C145.343 168.695 147.621 166.213 147.621 163.317Z" fill="#01243F" stroke="url(#paint1_linear_390_938)" stroke-width="2" stroke-miterlimit="10"/>
<path d="M56.8154 165.602C17.5777 142.948 4.06335 92.8974 26.6301 53.8106C40.5966 29.62 65.11 15.2983 91.0674 13.2658" stroke="url(#paint2_linear_390_938)" stroke-width="2" stroke-miterlimit="10"/>
<path d="M86.3165 12.2236C84.8687 14.7311 85.7037 17.8402 88.2142 19.2897C90.7247 20.7391 93.8348 19.9077 95.2825 17.4001C96.7303 14.8926 95.8953 11.7835 93.3848 10.334C90.9777 8.7055 87.7642 9.716 86.3165 12.2236Z" fill="#01243F" stroke="url(#paint3_linear_390_938)" stroke-width="2" stroke-miterlimit="10"/>
<path opacity="0.39" d="M97.7657 154.531C130.773 154.531 157.531 127.773 157.531 94.7657C157.531 61.758 130.773 35 97.7657 35C64.758 35 38 61.758 38 94.7657C38 127.773 64.758 154.531 97.7657 154.531Z" fill="url(#paint4_radial_390_938)"/>
<path d="M97.5565 63.25C90.5565 66.7219 85 69.5 69.375 72.625C69.375 76.1781 69.375 87.3185 69.375 91.0279C69.375 111.862 87.0844 122.278 97.5 125.75C107.916 122.278 125.625 111.862 125.625 91.0279C125.625 87.1997 125.625 76.3563 125.625 72.625C110 69.5 104.444 66.7219 97.5565 63.25ZM99.8438 95.4468V103.875C99.8438 105.169 98.7938 106.219 97.5 106.219C96.2062 106.219 95.1562 105.169 95.1562 103.875V95.3812C93.7875 94.5624 92.859 93.0813 92.859 91.375C92.859 88.7844 94.9438 86.6875 97.5313 86.6875H97.5626C100.153 86.6875 102.25 88.7844 102.25 91.375C102.25 93.1312 101.272 94.6437 99.8438 95.4468Z" fill="url(#paint5_linear_390_938)"/>
</g>
<defs>
<linearGradient id="paint0_linear_390_938" x1="138.467" y1="-55.0786" x2="250.944" y2="111.275" gradientUnits="userSpaceOnUse">
<stop offset="0.303689" stop-color="#004DF4" stop-opacity="0"/>
<stop offset="0.674376" stop-color="#32FDE8"/>
<stop offset="0.89827" stop-color="#26BAD9"/>
</linearGradient>
<linearGradient id="paint1_linear_390_938" x1="142.477" y1="153.411" x2="147.887" y2="168.202" gradientUnits="userSpaceOnUse">
<stop stop-color="#004DF4" stop-opacity="0"/>
<stop offset="0.506627" stop-color="#32FDE8"/>
<stop offset="0.89827" stop-color="#26BAD9"/>
</linearGradient>
<linearGradient id="paint2_linear_390_938" x1="-13.0279" y1="204.015" x2="-25.6619" y2="3.32" gradientUnits="userSpaceOnUse">
<stop offset="0.303689" stop-color="#004DF4" stop-opacity="0"/>
<stop offset="0.674376" stop-color="#32FDE8"/>
<stop offset="0.89827" stop-color="#26BAD9"/>
</linearGradient>
<linearGradient id="paint3_linear_390_938" x1="85.8175" y1="23.3749" x2="88.5287" y2="7.86024" gradientUnits="userSpaceOnUse">
<stop stop-color="#004DF4" stop-opacity="0"/>
<stop offset="0.506627" stop-color="#32FDE8"/>
<stop offset="0.89827" stop-color="#26BAD9"/>
</linearGradient>
<radialGradient id="paint4_radial_390_938" cx="0" cy="0" r="1" gradientUnits="userSpaceOnUse" gradientTransform="translate(97.7792 94.7532) scale(74.2636)">
<stop stop-color="#11639D"/>
<stop offset="0.99" stop-color="white" stop-opacity="0"/>
</radialGradient>
<linearGradient id="paint5_linear_390_938" x1="82.5" y1="114.5" x2="126" y2="56.5" gradientUnits="userSpaceOnUse">
<stop stop-color="#21B3BA"/>
<stop offset="1" stop-color="white"/>
</linearGradient>
<clipPath id="clip0_390_938">
<rect width="193" height="181" fill="white" transform="translate(0.725586)"/>
</clipPath>
</defs>
</svg>
