<svg width="194" height="181" viewBox="0 0 194 181" fill="none" xmlns="http://www.w3.org/2000/svg">
<g clip-path="url(#clip0_386_921)">
<path d="M97.7383 13.3826C142.442 13.3826 178.681 50.117 178.681 95.4311C178.681 123.476 164.8 148.234 143.623 163.032" stroke="url(#paint0_linear_386_921)" stroke-width="2" stroke-miterlimit="10"/>
<path d="M147.621 163.317C147.621 160.422 145.343 158.147 142.444 158.147C139.545 158.147 137.268 160.422 137.268 163.317C137.268 166.213 139.545 168.488 142.444 168.488C145.343 168.695 147.621 166.213 147.621 163.317Z" fill="#01243F" stroke="url(#paint1_linear_386_921)" stroke-width="2" stroke-miterlimit="10"/>
<path d="M56.8154 165.602C17.5777 142.948 4.06335 92.8977 26.6301 53.8109C40.5966 29.6202 65.11 15.2985 91.0674 13.266" stroke="url(#paint2_linear_386_921)" stroke-width="2" stroke-miterlimit="10"/>
<path d="M86.3165 12.2236C84.8687 14.7311 85.7037 17.8402 88.2142 19.2897C90.7247 20.7391 93.8348 19.9077 95.2825 17.4001C96.7303 14.8926 95.8953 11.7835 93.3848 10.334C90.9777 8.7055 87.7642 9.716 86.3165 12.2236Z" fill="#01243F" stroke="url(#paint3_linear_386_921)" stroke-width="2" stroke-miterlimit="10"/>
<path opacity="0.39" d="M97.7657 154.531C130.773 154.531 157.531 127.773 157.531 94.7657C157.531 61.758 130.773 35 97.7657 35C64.758 35 38 61.758 38 94.7657C38 127.773 64.758 154.531 97.7657 154.531Z" fill="url(#paint4_radial_386_921)"/>
<path d="M80.4844 115.214H115.484V96.2144H80.4844V115.214ZM97.9844 101.089C98.6193 101.09 99.2379 101.291 99.751 101.665C100.264 102.039 100.645 102.566 100.84 103.171C101.034 103.775 101.032 104.426 100.834 105.029C100.635 105.632 100.25 106.156 99.7344 106.527V109.839C99.7344 110.114 99.5094 110.339 99.2344 110.339H96.7344C96.4594 110.339 96.2344 110.114 96.2344 109.839V106.527C95.7187 106.156 95.3339 105.632 95.1352 105.029C94.9366 104.426 94.9343 103.775 95.1289 103.171C95.3234 102.566 95.7046 102.039 96.2178 101.665C96.7309 101.291 97.3494 101.09 97.9844 101.089V101.089Z" fill="#E6F4FF"/>
<path d="M96.234 106.527V109.839C96.234 110.114 96.459 110.339 96.734 110.339H99.234C99.509 110.339 99.734 110.114 99.734 109.839V106.527C100.25 106.156 100.635 105.632 100.834 105.029C101.033 104.426 101.035 103.775 100.84 103.17C100.646 102.566 100.264 102.038 99.7511 101.664C99.2378 101.29 98.6191 101.089 97.984 101.089C97.3488 101.089 96.7301 101.29 96.2168 101.664C95.7035 102.038 95.3221 102.566 95.1276 103.17C94.933 103.775 94.9353 104.426 95.1341 105.029C95.333 105.632 95.718 106.156 96.234 106.527Z" stroke="url(#paint5_linear_386_921)" stroke-width="2" stroke-miterlimit="10"/>
<path d="M117.984 91.7144H86.7344V77.7144C86.7344 75.7831 88.3031 74.2144 90.2344 74.2144H105.734C107.666 74.2144 109.234 75.7831 109.234 77.7144V81.9644C109.234 82.2394 109.459 82.4644 109.734 82.4644H113.234C113.509 82.4644 113.734 82.2394 113.734 81.9644V77.7144C113.734 73.2956 110.153 69.7144 105.734 69.7144H90.2344C85.8156 69.7144 82.2344 73.2956 82.2344 77.7144V91.7144H77.9844C76.8781 91.7144 75.9844 92.6081 75.9844 93.7144V117.714C75.9844 118.821 76.8781 119.714 77.9844 119.714H117.984C119.091 119.714 119.984 118.821 119.984 117.714V93.7144C119.984 92.6081 119.091 91.7144 117.984 91.7144ZM115.484 115.214H80.4844V96.2144H115.484V115.214Z" stroke="url(#paint6_linear_386_921)" stroke-width="2" stroke-miterlimit="10"/>
<path d="M153.283 71.6446C150.262 64.5009 145.935 58.0838 140.425 52.5733C134.915 47.0636 128.499 42.7381 121.353 39.715C113.955 36.5866 106.097 35 97.9986 35C89.8999 35 82.0417 36.5866 74.6427 39.715C67.8204 42.6011 61.6642 46.6751 56.3241 51.8336C56.0716 52.0776 55.821 52.3245 55.5714 52.5733C55.3235 52.8211 55.0776 53.0717 54.8344 53.3232C49.6742 58.6624 45.6011 64.8214 42.7149 71.6437C39.5856 79.0426 37.999 86.9 37.999 94.9995C37.999 103.099 39.5856 110.956 42.714 118.354C45.7362 125.499 50.0617 131.916 55.5723 137.426C61.0819 142.935 67.498 147.262 74.6436 150.284C82.0417 153.413 89.8999 155 97.9995 155C106.099 155 113.955 153.413 121.354 150.284C128.175 147.4 134.33 143.327 139.667 138.17C139.922 137.924 140.173 137.676 140.425 137.426C140.674 137.177 140.921 136.925 141.165 136.672C146.324 131.335 150.398 125.177 153.283 118.354C156.412 110.956 157.999 103.098 157.999 94.9995C157.999 86.9009 156.412 79.0426 153.283 71.6437V71.6446ZM136.866 137.057C126.645 146.51 112.986 152.294 97.9986 152.294C66.4071 152.294 40.7054 126.592 40.7054 95.0005C40.7054 80.0143 46.4889 66.3539 55.9412 56.133C56.1462 55.9122 56.353 55.6924 56.5598 55.4753L82.1572 81.0727L84.0754 82.9909L102.302 101.217L109.778 108.694L111.696 110.612L137.524 136.439C137.307 136.647 137.087 136.854 136.866 137.057ZM140.056 133.867C139.852 134.088 139.645 134.308 139.438 134.525L58.4734 53.5608C58.6904 53.353 58.9103 53.1462 59.1311 52.9431C69.352 43.4899 83.0124 37.7064 97.9986 37.7064C129.59 37.7064 155.292 63.4081 155.292 94.9995C155.292 109.986 149.508 123.646 140.055 133.867H140.056Z" fill="white"/>
</g>
<defs>
<linearGradient id="paint0_linear_386_921" x1="138.467" y1="-55.0783" x2="250.944" y2="111.275" gradientUnits="userSpaceOnUse">
<stop offset="0.303689" stop-color="#004DF4" stop-opacity="0"/>
<stop offset="0.674376" stop-color="#32FDE8"/>
<stop offset="0.89827" stop-color="#26BAD9"/>
</linearGradient>
<linearGradient id="paint1_linear_386_921" x1="142.477" y1="153.411" x2="147.887" y2="168.202" gradientUnits="userSpaceOnUse">
<stop stop-color="#004DF4" stop-opacity="0"/>
<stop offset="0.506627" stop-color="#32FDE8"/>
<stop offset="0.89827" stop-color="#26BAD9"/>
</linearGradient>
<linearGradient id="paint2_linear_386_921" x1="-13.0279" y1="204.015" x2="-25.6619" y2="3.32024" gradientUnits="userSpaceOnUse">
<stop offset="0.303689" stop-color="#004DF4" stop-opacity="0"/>
<stop offset="0.674376" stop-color="#32FDE8"/>
<stop offset="0.89827" stop-color="#26BAD9"/>
</linearGradient>
<linearGradient id="paint3_linear_386_921" x1="85.8175" y1="23.3749" x2="88.5287" y2="7.86024" gradientUnits="userSpaceOnUse">
<stop stop-color="#004DF4" stop-opacity="0"/>
<stop offset="0.506627" stop-color="#32FDE8"/>
<stop offset="0.89827" stop-color="#26BAD9"/>
</linearGradient>
<radialGradient id="paint4_radial_386_921" cx="0" cy="0" r="1" gradientUnits="userSpaceOnUse" gradientTransform="translate(97.7792 94.7532) scale(74.2636)">
<stop stop-color="#11639D"/>
<stop offset="0.99" stop-color="white" stop-opacity="0"/>
</radialGradient>
<linearGradient id="paint5_linear_386_921" x1="98.1245" y1="46.8406" x2="126.825" y2="115.903" gradientUnits="userSpaceOnUse">
<stop offset="0.303689" stop-color="#0050FF" stop-opacity="0.8"/>
<stop offset="0.674376" stop-color="#32FDE8"/>
<stop offset="0.89827" stop-color="#26BAD9"/>
</linearGradient>
<linearGradient id="paint6_linear_386_921" x1="98.1245" y1="46.8406" x2="126.825" y2="115.903" gradientUnits="userSpaceOnUse">
<stop offset="0.303689" stop-color="#0050FF" stop-opacity="0.8"/>
<stop offset="0.674376" stop-color="#32FDE8"/>
<stop offset="0.89827" stop-color="#26BAD9"/>
</linearGradient>
<clipPath id="clip0_386_921">
<rect width="193" height="181" fill="white" transform="translate(0.725586)"/>
</clipPath>
</defs>
</svg>
