<svg width="194" height="181" viewBox="0 0 194 181" fill="none" xmlns="http://www.w3.org/2000/svg">
<g clip-path="url(#clip0_386_826)">
<path d="M97.7387 13.3826C142.442 13.3826 178.681 50.117 178.681 95.4311C178.681 123.476 164.801 148.234 143.623 163.032" stroke="url(#paint0_linear_386_826)" stroke-width="2" stroke-miterlimit="10"/>
<path d="M147.621 163.317C147.621 160.422 145.343 158.147 142.445 158.147C139.546 158.147 137.268 160.422 137.268 163.317C137.268 166.213 139.546 168.488 142.445 168.488C145.343 168.695 147.621 166.213 147.621 163.317Z" fill="#01243F" stroke="url(#paint1_linear_386_826)" stroke-width="2" stroke-miterlimit="10"/>
<path d="M56.8159 165.602C17.5782 142.948 4.06378 92.8977 26.6306 53.8109C40.597 29.6202 65.1104 15.2985 91.0678 13.266" stroke="url(#paint2_linear_386_826)" stroke-width="2" stroke-miterlimit="10"/>
<path d="M86.3169 12.2236C84.8692 14.7311 85.7042 17.8402 88.2147 19.2897C90.7252 20.7391 93.8352 19.9077 95.283 17.4001C96.7307 14.8926 95.8957 11.7835 93.3852 10.334C90.9781 8.7055 87.7646 9.716 86.3169 12.2236Z" fill="#01243F" stroke="url(#paint3_linear_386_826)" stroke-width="2" stroke-miterlimit="10"/>
<path opacity="0.39" d="M97.7657 154.531C130.773 154.531 157.531 127.773 157.531 94.7657C157.531 61.758 130.773 35 97.7657 35C64.758 35 38 61.758 38 94.7657C38 127.773 64.758 154.531 97.7657 154.531Z" fill="url(#paint4_radial_386_826)"/>
<path d="M99.4653 98.9648L95.9744 102.025L90.794 102.512L97.3026 96.8037L99.4653 98.9648Z" fill="url(#paint5_linear_386_826)"/>
<path d="M107.405 106.905L90.8034 121.464C88.8761 123.154 86.4844 123.984 84.1022 123.984C81.2723 123.984 78.455 122.812 76.4469 120.522L69.5198 112.623C65.8213 108.404 66.2437 101.964 70.4613 98.2659L85.5414 85.0417L95.6724 95.1729L86.6255 103.106C86.6112 103.118 86.597 103.13 86.5835 103.143L85.8116 103.82L86.9694 98.747L90.8486 95.3448C91.3265 94.9256 91.3748 94.1989 90.9556 93.721C90.5364 93.2432 89.8089 93.1956 89.3318 93.614L85.1721 97.2611C84.9898 97.4203 84.863 97.6343 84.8091 97.8705L82.8588 106.409L80.2064 108.735C79.7285 109.154 79.681 109.881 80.0994 110.358C80.3276 110.618 80.6462 110.752 80.9656 110.752C81.235 110.752 81.5053 110.657 81.724 110.465L84.6443 107.904C84.6443 107.904 84.6506 107.899 84.653 107.897L87.8419 105.1L96.5624 104.282C96.8033 104.259 97.0315 104.161 97.2138 104.002L101.098 100.596L107.406 106.904L107.405 106.905Z" fill="url(#paint6_linear_386_826)"/>
<path d="M116.313 99.0934L110.296 104.37L88.4327 82.5067L95.9708 75.8958L98.0186 78.2304L98.0431 78.2589L114.252 96.7436L116.313 99.0934Z" fill="url(#paint7_linear_386_826)"/>
<path d="M113.742 66L100.521 77.5932L115.224 94.3583L128.444 82.765L113.742 66ZM112.222 80.0135C111.902 80.0135 111.584 79.8804 111.356 79.6204L107.731 75.4876C107.312 75.0098 107.36 74.2823 107.838 73.863L110.939 71.144C111.416 70.7248 112.145 70.7723 112.563 71.251L116.188 75.3846C116.608 75.8625 116.56 76.59 116.082 77.0092L112.981 79.7274C112.763 79.9192 112.492 80.0135 112.222 80.0135ZM123.665 85.4412L120.565 88.1594C120.354 88.3441 120.084 88.4455 119.806 88.4455C119.78 88.4455 119.755 88.4439 119.729 88.4424C119.424 88.4225 119.141 88.2831 118.939 88.0525L115.415 84.0338C114.996 83.5567 115.043 82.8292 115.522 82.41L118.623 79.691C118.853 79.4897 119.153 79.3882 119.458 79.408C119.763 79.4279 120.046 79.5681 120.248 79.7979L123.772 83.8166C124.191 84.2945 124.144 85.022 123.665 85.4412Z" fill="url(#paint8_linear_386_826)"/>
<path d="M111.59 73.6315L110.221 74.8325L112.328 77.2345L113.697 76.0335L111.59 73.6315Z" fill="url(#paint9_linear_386_826)"/>
<path d="M119.274 82.1789L117.905 83.3799L119.912 85.6669L121.281 84.4659L119.274 82.1789Z" fill="url(#paint10_linear_386_826)"/>
</g>
<defs>
<linearGradient id="paint0_linear_386_826" x1="138.468" y1="-55.0783" x2="250.944" y2="111.275" gradientUnits="userSpaceOnUse">
<stop offset="0.303689" stop-color="#004DF4" stop-opacity="0"/>
<stop offset="0.674376" stop-color="#32FDE8"/>
<stop offset="0.89827" stop-color="#26BAD9"/>
</linearGradient>
<linearGradient id="paint1_linear_386_826" x1="142.478" y1="153.411" x2="147.887" y2="168.202" gradientUnits="userSpaceOnUse">
<stop stop-color="#004DF4" stop-opacity="0"/>
<stop offset="0.506627" stop-color="#32FDE8"/>
<stop offset="0.89827" stop-color="#26BAD9"/>
</linearGradient>
<linearGradient id="paint2_linear_386_826" x1="-13.0275" y1="204.015" x2="-25.6615" y2="3.32024" gradientUnits="userSpaceOnUse">
<stop offset="0.303689" stop-color="#004DF4" stop-opacity="0"/>
<stop offset="0.674376" stop-color="#32FDE8"/>
<stop offset="0.89827" stop-color="#26BAD9"/>
</linearGradient>
<linearGradient id="paint3_linear_386_826" x1="85.818" y1="23.3749" x2="88.5291" y2="7.86024" gradientUnits="userSpaceOnUse">
<stop stop-color="#004DF4" stop-opacity="0"/>
<stop offset="0.506627" stop-color="#32FDE8"/>
<stop offset="0.89827" stop-color="#26BAD9"/>
</linearGradient>
<radialGradient id="paint4_radial_386_826" cx="0" cy="0" r="1" gradientUnits="userSpaceOnUse" gradientTransform="translate(97.7792 94.7532) scale(74.2636)">
<stop stop-color="#11639D"/>
<stop offset="0.99" stop-color="white" stop-opacity="0"/>
</radialGradient>
<linearGradient id="paint5_linear_386_826" x1="94.2269" y1="96.8472" x2="94.5942" y2="101.398" gradientUnits="userSpaceOnUse">
<stop stop-color="white"/>
<stop offset="1" stop-color="#4AFCEB"/>
</linearGradient>
<linearGradient id="paint6_linear_386_826" x1="82.9963" y1="85.3387" x2="86.6381" y2="116.158" gradientUnits="userSpaceOnUse">
<stop stop-color="white"/>
<stop offset="1" stop-color="#4AFCEB"/>
</linearGradient>
<linearGradient id="paint7_linear_386_826" x1="99.4703" y1="76.1129" x2="102.287" y2="98.6093" gradientUnits="userSpaceOnUse">
<stop stop-color="white"/>
<stop offset="1" stop-color="#4AFCEB"/>
</linearGradient>
<linearGradient id="paint8_linear_386_826" x1="111.576" y1="66.2163" x2="114.366" y2="88.6251" gradientUnits="userSpaceOnUse">
<stop stop-color="white"/>
<stop offset="1" stop-color="#4AFCEB"/>
</linearGradient>
<linearGradient id="paint9_linear_386_826" x1="110.779" y1="74.3754" x2="112.792" y2="75.8699" gradientUnits="userSpaceOnUse">
<stop stop-color="white"/>
<stop offset="1" stop-color="#4AFCEB"/>
</linearGradient>
<linearGradient id="paint10_linear_386_826" x1="118.463" y1="82.9219" x2="120.368" y2="84.3667" gradientUnits="userSpaceOnUse">
<stop stop-color="white"/>
<stop offset="1" stop-color="#4AFCEB"/>
</linearGradient>
<clipPath id="clip0_386_826">
<rect width="193" height="181" fill="white" transform="translate(0.72583)"/>
</clipPath>
</defs>
</svg>
